<svg xmlns="http://www.w3.org/2000/svg" viewBox="-50 -50 100 100">
  <circle fill="hsl(-1181.718218123371,60%,60%)" r="0.12909944487358055" cx="-0.10757804543560365" cy="-0.0985080560688039"/>
  <circle fill="hsl(-1279.3882946289816,60%,60%)" r="0.18257418583505536" cx="0.025628995042045317" cy="0.29060393406478946"/>
  <circle fill="hsl(-173.2128116062088,60%,60%)" r="0.22360679774997896" cx="0.2660289762221628" cy="-0.3474484717796046"/>
  <circle fill="hsl(1119.7955932434165,60%,60%)" r="0.2581988897471611" cx="-0.574457615580653" cy="0.1021196133197803"/>
  <circle fill="hsl(1410.8509555149194,60%,60%)" r="0.28867513459481287" cx="0.6157934401056391" cy="0.3907944003921348"/>
  <circle fill="hsl(432.35831740645324,60%,60%)" r="0.31622776601683794" cx="-0.22828735181547782" cy="-0.8448978115300425"/>
  <circle fill="hsl(-916.0607021550562,60%,60%)" r="0.3415650255319866" cx="-0.4692593443358525" cy="0.9068420167224595"/>
  <circle fill="hsl(-1394.6758751376697,60%,60%)" r="0.3651483716701107" cx="1.0954343857895985" cy="-0.40217331652227706"/>
  <circle fill="hsl(-563.4506187481295,60%,60%)" r="0.3872983346207417" cx="-1.214435321913778" cy="-0.49857151891612395"/>
  <circle fill="hsl(813.3903996806924,60%,60%)" r="0.408248290463863" cx="0.6210669735285752" cy="1.3198345015235804"/>
  <circle fill="hsl(1469.985897433013,60%,60%)" r="0.4281744192888376" cx="0.47661075047702167" cy="-1.5321043769677898"/>
  <circle fill="hsl(802.6650019206263,60%,60%)" r="0.4472135954999579" cx="-1.512204034454076" cy="0.8815376712821366"/>
  <circle fill="hsl(-575.0405330303629,60%,60%)" r="0.4654746681256314" cx="1.8531517577552057" cy="0.40202001777584795"/>
  <circle fill="hsl(-1396.4745922006134,60%,60%)" r="0.48304589153964794" cx="-1.1794746086031933" cy="-1.6670653106040656"/>
  <circle fill="hsl(-906.4144898262482,60%,60%)" r="0.5" cx="-0.2742277522453111" cy="2.170736178855771"/>
  <circle fill="hsl(444.58077599769405,60%,60%)" r="0.5163977794943222" cx="1.7794303186998872" cy="-1.5101348354576383"/>
  <circle fill="hsl(1414.4123883065618,60%,60%)" r="0.5322906474223771" cx="-2.477959100570552" cy="-0.0934611378446253"/>
  <circle fill="hsl(1111.4216353512136,60%,60%)" r="0.5477225575051661" cx="1.8681987899404167" cy="1.844868592504565"/>
  <circle fill="hsl(-185.82318191465137,60%,60%)" r="0.5627314338711378" cx="-0.13924976101354047" cy="-2.767952428474821"/>
  <circle fill="hsl(-1284.641161047784,60%,60%)" r="0.5773502691896257" cx="-1.8595690115061563" cy="2.2478327961674074"/>
  <circle fill="hsl(-1174.7841194919208,60%,60%)" r="0.5916079783099616" cx="3.0339663616928774" cy="-0.42207712088435767"/>
  <circle fill="hsl(42.74588537818158,60%,60%)" r="0.6055300708194983" cx="-2.642757874598766" cy="-1.8203948291023933"/>
  <circle fill="hsl(1248.5573820122456,60%,60%)" r="0.6191391873668903" cx="0.7524097124501672" cy="3.26945644195578"/>
  <circle fill="hsl(1334.0328412895385,60%,60%)" r="0.6324555320336759" cx="1.7249313051294266" cy="-3.0463241494331093"/>
  <circle fill="hsl(220.58652014079317,60%,60%)" r="0.6454972243679028" cx="-3.4681688607898624" cy="1.1268763727322473"/>
  <circle fill="hsl(-1068.0841686906278,60%,60%)" r="0.6582805886043833" cx="3.451590077778119" cy="1.5715253936346192"/>
  <circle fill="hsl(-1347.1813369024844,60%,60%)" r="0.6708203932499369" cx="-1.5413783894874782" cy="-3.624223096843841"/>
  <circle fill="hsl(-360.1043351633314,60%,60%)" r="0.6831300510639732" cx="-1.359317016492526" cy="3.8514056729082955"/>
  <circle fill="hsl(985.6327932666733,60%,60%)" r="0.695221787153807" cx="3.7321909792744683" cy="-1.9911304985258989"/>
  <circle fill="hsl(1452.765538693721,60%,60%)" r="0.7071067811865476" cx="-4.238498849592106" cy="-1.088261538043991"/>
  <circle fill="hsl(611.8142092652137,60%,60%)" r="0.7187952884282609" cx="2.470710104991806" cy="3.7871713060611634"/>
  <circle fill="hsl(-764.0544209880344,60%,60%)" r="0.7302967433402214" cx="0.7591431446057668" cy="-4.605563983648721"/>
  <circle fill="hsl(-1409.8730785544647,60%,60%)" r="0.7416198487095663" cx="-3.7848591878189892" cy="2.974114253509664"/>
  <circle fill="hsl(-731.8790680128343,60%,60%)" r="0.752772652709081" cx="4.945351750952382" cy="0.37357892459658004"/>
  <circle fill="hsl(646.5830440744575,60%,60%)" r="0.7637626158259734" cx="-3.4948237903714086" cy="-3.7216093377392943"/>
  <circle fill="hsl(1458.1615489580868,60%,60%)" r="0.7745966692414834" cx="0.06598646071129537" cy="5.250759293319514"/>
  <circle fill="hsl(956.6949120340793,60%,60%)" r="0.7852812659593165" cx="3.5944925862596735" cy="-4.025874084410397"/>
  <circle fill="hsl(-396.7707533415149,60%,60%)" r="0.7958224257542215" cx="-5.51491975029271" cy="0.5562955300911145"/>
  <circle fill="hsl(-1357.8653562490865,60%,60%)" r="0.806225774829855" cx="4.55993160264491" cy="3.4013449644035725"/>
  <circle fill="hsl(-1042.9629510902623,60%,60%)" r="0.816496580927726" cx="-1.0933020769308843" cy="-5.731290196883917"/>
  <circle fill="hsl(258.4166430787809,60%,60%)" r="0.8266397845091497" cx="-3.1408087718427815" cy="5.089375572859666"/>
  <circle fill="hsl(1349.7910289985127,60%,60%)" r="0.8366600265340756" cx="5.8937370378800455" cy="-1.672204427620236"/>
  <circle fill="hsl(1227.7556293851815,60%,60%)" r="0.8465616732800196" cx="-5.606383908685751" cy="-2.812365123935405"/>
  <circle fill="hsl(4.50922784820445,60%,60%)" r="0.8563488385776752" cx="2.2874875913413106" cy="5.996617929280271"/>
  <circle fill="hsl(-1195.3010753291305,60%,60%)" r="0.8660254037844386" cx="2.416357555569802" cy="-6.103022523987156"/>
  <circle fill="hsl(-1268.5752206142852,60%,60%)" r="0.8755950357709131" cx="-6.034859326668356" cy="2.9329739365132306"/>
  <circle fill="hsl(-147.94529675312256,60%,60%)" r="0.8850612031567836" cx="6.571337122988281" cy="1.9540063477907696"/>
  <circle fill="hsl(1136.2867123060803,60%,60%)" r="0.8944271909999159" cx="-3.6018819399286213" cy="-6.004028798578126"/>
  <circle fill="hsl(1403.4038199736394,60%,60%)" r="0.9036961141150639" cx="-1.4274133351001514" cy="7.003446520980014"/>
  <circle fill="hsl(407.8197893336574,60%,60%)" r="0.9128709291752769" cx="5.900401289864574" cy="-4.286892469384208"/>
  <circle fill="hsl(-935.1300132144596,60%,60%)" r="0.9219544457292888" cx="-7.391636527982637" cy="-0.8395570461150735"/>
  <circle fill="hsl(-1390.743732538299,60%,60%)" r="0.9309493362512627" cx="4.980221980219832" cy="5.7210185753198255"/>
  <circle fill="hsl(-540.1322162618412,60%,60%)" r="0.939858145324779" cx="0.19427812705436112" cy="-7.728453414664438"/>
  <circle fill="hsl(834.6562303463274,60%,60%)" r="0.9486832980505138" cx="-5.4637412067946025" cy="5.6737019313915455"/>
  <circle fill="hsl(1469.6474496364126,60%,60%)" r="0.9574271077563381" cx="8.006795976289553" cy="-0.5037449046160973"/>
  <circle fill="hsl(781.0334430051531,60%,60%)" r="0.9660917830792959" cx="-6.35886365829046" cy="-5.127292327322311"/>
  <circle fill="hsl(-598.0772475568679,60%,60%)" r="0.9746794344808963" cx="1.2490294310494539" cy="8.220005216576823"/>
  <circle fill="hsl(-1399.7366132417335,60%,60%)" r="0.983192080250175" cx="4.711292802566195" cy="-7.027027878145839"/>
  <circle fill="hsl(-886.9027302803585,60%,60%)" r="0.991631652042901" cx="-8.361950689081649" cy="2.035331786866974"/>
  <circle fill="hsl(468.92729438719203,60%,60%)" r="1" cx="7.669397950152023" cy="4.2162872026134375"/>
  <circle fill="hsl(1421.209588812086,60%,60%)" r="1.0082988974836116" cx="-2.8556992559926795" cy="-8.427112558963177"/>
  <circle fill="hsl(1094.420203174881,60%,60%)" r="1.0165300454651272" cx="-3.643760254964899" cy="8.277155966984354"/>
  <circle fill="hsl(-210.99220843604195,60%,60%)" r="1.02469507659596" cx="8.410658482580812" cy="-3.702530581658025"/>
  <circle fill="hsl(-1294.8374950033785,60%,60%)" r="1.0327955589886444" cx="-8.84156071760076" cy="-2.9961434816970858"/>
  <circle fill="hsl(-1160.633298465749,60%,60%)" r="1.0408329997330663" cx="4.567644469498269" cy="8.308514445997817"/>
  <circle fill="hsl(68.23366179451219,60%,60%)" r="1.0488088481701516" cx="2.2768118293761885" cy="-9.354046533549067"/>
  <circle fill="hsl(1261.948769724464,60%,60%)" r="1.0567244989431572" cx="-8.11742875578922" cy="5.442355478826375"/>
  <circle fill="hsl(1323.0158601925796,60%,60%)" r="1.0645812948447542" cx="9.806322012758297" cy="1.4900701984450733"/>
  <circle fill="hsl(195.2901318477896,60%,60%)" r="1.0723805294763609" cx="-6.317556617593696" cy="-7.83502843610778"/>
  <circle fill="hsl(-1084.4025814433603,60%,60%)" r="1.0801234497346435" cx="-0.6411298786018413" cy="10.190467606186731"/>
  <circle fill="hsl(-1339.5187006862996,60%,60%)" r="1.0878112581387147" cx="7.459867354236706" cy="-7.183807883008059"/>
  <circle fill="hsl(-335.5056423773322,60%,60%)" r="1.0954451150103321" cx="-10.49903105388376" cy="0.26392500279101017"/>
  <circle fill="hsl(1004.551617917723,60%,60%)" r="1.1030261405182864" cx="8.031429923045458" cy="6.991465472231321"/>
  <circle fill="hsl(1448.6106150742762,60%,60%)" r="1.1105554165971787" cx="-1.2181808120105952" cy="-10.725119668053184"/>
  <circle fill="hsl(588.4055549895799,60%,60%)" r="1.118033988749895" cx="-6.430338704076411" cy="8.850601934796787"/>
  <circle fill="hsl(-785.1949971333797,60%,60%)" r="1.1254628677422756" cx="10.862488481519922" cy="-2.21394721362522"/>
  <circle fill="hsl(-1409.309028356253,60%,60%)" r="1.132843031197762" cx="-9.631462864385842" cy="-5.778018945301999"/>
  <circle fill="hsl(-710.1289766220507,60%,60%)" r="1.140175425099138" cx="3.242819045270285" cy="10.905623310491041"/>
  <circle fill="hsl(669.522242938812,60%,60%)" r="1.1474609652039003" cx="5.037063934446163" cy="-10.364214930582843"/>
  <circle fill="hsl(1461.1996616496604,60%,60%)" r="1.1547005383792515" cx="-10.849817820421537" cy="4.295746765457611"/>
  <circle fill="hsl(937.0387117552135,60%,60%)" r="1.161895003862225" cx="11.03922846072081" cy="4.211056702241142"/>
  <circle fill="hsl(-421.0494467036426,60%,60%)" r="1.1690451944500122" cx="-5.363114887505212" cy="-10.69124373284235"/>
  <circle fill="hsl(-1364.444823984267,60%,60%)" r="1.1761519176251567" cx="-3.3045944641067884" cy="11.647147003429577"/>
  <circle fill="hsl(-1025.7940609055408,60%,60%)" r="1.1832159566199232" cx="10.427013368785731" cy="-6.434827727677777"/>
  <circle fill="hsl(283.5488927259654,60%,60%)" r="1.1902380714238083" cx="-12.178991668378362" cy="-2.3232669134779202"/>
  <circle fill="hsl(1359.780163685846,60%,60%)" r="1.1972189997378648" cx="7.500401716377852" cy="10.055233790447195"/>
  <circle fill="hsl(1213.4176847483845,60%,60%)" r="1.2041594578792296" cx="1.2736239767869764" cy="-12.626263638828103"/>
  <circle fill="hsl(-20.973555936471378,60%,60%)" r="1.2110601416389966" cx="-9.575051876434905" cy="8.549063448402094"/>
  <circle fill="hsl(-1208.4999443699328,60%,60%)" r="1.2179217270963407" cx="12.981043808484351" cy="0.16313319453640437"/>
  <circle fill="hsl(-1257.3551955848034,60%,60%)" r="1.224744871391589" cx="-9.569852582758594" cy="-8.986689746668901"/>
  <circle fill="hsl(-122.62201692166587,60%,60%)" r="1.2315302134607444" cx="0.9998730040671681" cy="13.236088509901975"/>
  <circle fill="hsl(1152.4311402467588,60%,60%)" r="1.2382783747337807" cx="8.291470040087068" cy="-10.551728644829074"/>
  <circle fill="hsl(1395.5262834287241,60%,60%)" r="1.2449899597988732" cx="-13.38492032747893" cy="2.2062597640115005"/>
  <circle fill="hsl(383.1628590734222,60%,60%)" r="1.2516655570345725" cx="11.483680734508066" cy="7.4918306409428626"/>
  <circle fill="hsl(-953.8968692200142,60%,60%)" r="1.2583057392117916" cx="-3.4461615371399166" cy="-13.421913023708179"/>
  <circle fill="hsl(-1386.3663534254567,60%,60%)" r="1.2649110640673518" cx="-6.591328546844319" cy="12.354839103805157"/>
  <circle fill="hsl(-516.6351441996312,60%,60%)" r="1.27148207485071" cx="13.342369652574954" cy="-4.709062521421144"/>
  <circle fill="hsl(855.669895666209,60%,60%)" r="1.2780193008453875" cx="-13.154587536692636" cy="-5.5946326729541385"/>
  <circle fill="hsl(1468.8578412283493,60%,60%)" r="1.284523257866513" cx="5.983885152685704" cy="13.14259298846282"/>
  <circle fill="hsl(759.1665231980527,60%,60%)" r="1.2909944487358056" cx="4.507505490929343" cy="-13.872675443159334"/>
  <circle fill="hsl(-620.9171335368248,60%,60%)" r="1.2974333637352375" cx="-12.819947462197543" cy="7.259085909086558"/>
  <circle fill="hsl(-1402.550579556105,60%,60%)" r="1.3038404810405297" cx="14.49932856867366" cy="3.336773507386831"/>
  <circle fill="hsl(-867.1036292769824,60%,60%)" r="1.3102162671355697" cx="-8.52275760897995" cy="-12.372911867439289"/>
  <circle fill="hsl(493.13626055404455,60%,60%)" r="1.3165611772087666" cx="-2.0902866939034412" cy="15.025357219812351"/>
  <circle fill="hsl(1427.570808293978,60%,60%)" r="1.3228756555322954" cx="11.801122179878998" cy="-9.762737310407186"/>
  <circle fill="hsl(1077.0852001164278,60%,60%)" r="1.3291601358251257" cx="-15.442260916754293" cy="-0.7768670877592679"/>
  <circle fill="hsl(-236.08571216736112,60%,60%)" r="1.3354150416006754" cx="10.966718855443835" cy="11.105403917979112"/>
  <circle fill="hsl(-1304.6186478016105,60%,60%)" r="1.3416407864998738" cx="-0.5937531110134073" cy="-15.742328403624667"/>
  <circle fill="hsl(-1146.1093535562964,60%,60%)" r="1.347837774610382" cx="-10.287793566554265" cy="12.122369046143744"/>
  <circle fill="hsl(93.70945644250219,60%,60%)" r="1.35400640077266" cx="15.918731978275648" cy="-2.0110035164656614"/>
  <circle fill="hsl(1274.954085999276,60%,60%)" r="1.3601470508735443" cx="-13.217446391218239" cy="-9.35154868249633"/>
  <circle fill="hsl(1311.59367028824,60%,60%)" r="1.3662601021279464" cx="3.46355707622285" cy="15.965615143737123"/>
  <circle fill="hsl(169.941944486221,60%,60%)" r="1.37234592334926" cx="8.301146404572805" cy="-14.239921324442928"/>
  <circle fill="hsl(-1100.371759701087,60%,60%)" r="1.378404875209022" cx="-15.878172634029669" cy="4.939420504944178"/>
  <circle fill="hsl(-1331.4268809956693,60%,60%)" r="1.3844373104863459" cx="15.178096767521195" cy="7.142270195578569"/>
  <circle fill="hsl(-310.7924064445719,60%,60%)" r="1.390443574307614" cx="-6.426032910474198" cy="-15.652721926888814"/>
  <circle fill="hsl(1023.1650349469602,60%,60%)" r="1.396424004376894" cx="-5.881784754138027" cy="16.02072789217298"/>
  <circle fill="hsl(1444.0111234234803,60%,60%)" r="1.4023789311975086" cx="15.286765424749614" cy="-7.91037180451946"/>
  <circle fill="hsl(564.8219060708499,60%,60%)" r="1.408308678285174" cx="-16.75713992867932" cy="-4.527699144339785"/>
  <circle fill="hsl(-806.0801052657325,60%,60%)" r="1.4142135623730951" cx="9.379065609412223" cy="14.77904256253471"/>
  <circle fill="hsl(-1408.2939236019545,60%,60%)" r="1.420093893609386" cx="3.0891183029235503" cy="-17.377342871314717"/>
  <circle fill="hsl(-688.1469416108075,60%,60%)" r="1.4259499757471625" cx="-14.129571185703657" cy="10.818511699701633"/>
  <circle fill="hsl(692.2610265930114,60%,60%)" r="1.4317821063276353" cx="17.872141944984552" cy="1.5761831950857343"/>
  <circle fill="hsl(1463.7892611204184,60%,60%)" r="1.4375905768565218" cx="-12.214998952532198" cy="-13.339677634014382"/>
  <circle fill="hsl(917.0982612316653,60%,60%)" r="1.4433756729740645" cx="1.3490385199392751e-12" cy="18.233242722"/>
  <circle fill="hsl(-445.1867889702461,60%,60%)" r="1.449137674618944" cx="12.41201506466935" cy="-13.554833724886008"/>
  <circle fill="hsl(-1370.5872968290676,60%,60%)" r="1.4548768561863463" cx="-18.453349813114077" cy="1.627441185170456"/>
  <circle fill="hsl(-1008.2943031224936,60%,60%)" r="1.4605934866804429" cx="14.824468129263241" cy="11.350569652145467"/>
  <circle fill="hsl(308.6016845353946,60%,60%)" r="1.466287829861518" cx="-3.293357529563759" cy="-18.526258102475907"/>
  <circle fill="hsl(1369.352568268937,60%,60%)" r="1.4719601443879744" cx="-10.160654410195114" cy="16.01062944274686"/>
  <circle fill="hsl(1198.7088774768486,60%,60%)" r="1.4776106839534333" cx="18.446935551739244" cy="-4.98427384797132"/>
  <circle fill="hsl(-46.44036549032387,60%,60%)" r="1.4832396974191326" cx="-17.10044945819529" cy="-8.848890493189701"/>
  <circle fill="hsl(-1221.3106889484993,60%,60%)" r="1.4888474289418197" cx="6.686131387184203" cy="18.211596663751582"/>
  <circle fill="hsl(-1245.7317357023258,60%,60%)" r="1.4944341180973264" cx="7.423175948306809" cy="-18.08159257071622"/>
  <circle fill="hsl(-97.25090798976207,60%,60%)" r="1.5" cx="-17.81776577056807" cy="8.384404142636322"/>
  <circle fill="hsl(1168.2238176809599,60%,60%)" r="1.505545305418162" cx="18.942381387965085" cy="5.892642005898745"/>
  <circle fill="hsl(1387.2208145638813,60%,60%)" r="1.5110702608857516" cx="-10.064221747137532" cy="-17.264329393350813"/>
  <circle fill="hsl(358.3952536812401,60%,60%)" r="1.51657508881031" cx="-4.267597111773909" cy="19.67191865924767"/>
  <circle fill="hsl(-972.3553889636278,60%,60%)" r="1.52206000757745" cx="16.551577012425376" cy="-11.710497899704121"/>
  <circle fill="hsl(-1381.5451095940487,60%,60%)" r="1.5275252316519468" cx="-20.26020433598742" cy="-2.55945902095445"/>
  <circle fill="hsl(-492.966766137493,60%,60%)" r="1.5329709716755893" cx="13.308063237470707" cy="15.68122968354253"/>
  <circle fill="hsl(876.4248103210654,60%,60%)" r="1.5383974345619102" cx="0.7806753867009271" cy="-20.698246604765835"/>
  <circle fill="hsl(1467.6173196584418,60%,60%)" r="1.5438048235879214" cx="-14.656456040453309" cy="14.841801497859603"/>
  <circle fill="hsl(737.0710952137958,60%,60%)" r="1.5491933384829668" cx="20.978165773703907" cy="-1.0553666097868948"/>
  <circle fill="hsl(-643.5530333449921,60%,60%)" r="1.5545631755148024" cx="-16.29678777221432" cy="-13.48187533341889"/>
  <circle fill="hsl(-1404.9156092953542,60%,60%)" r="1.559914527573012" cx="2.9344409356740617" cy="21.093289943197842"/>
  <circle fill="hsl(-847.0233915119411,60%,60%)" r="1.5652475842498528" cx="12.163547267184372" cy="-17.65842761663707"/>
  <circle fill="hsl(517.2000878269582,60%,60%)" r="1.570562531918633" cx="-21.038241452584867" cy="4.841592932288692"/>
  <circle fill="hsl(1433.4940532560724,60%,60%)" r="1.5758595538097084" cx="18.912595761064683" cy="10.708948519343792"/>
  <circle fill="hsl(1059.4220586659972,60%,60%)" r="1.5811388300841898" cx="-6.761258236393544" cy="-20.809013164739152"/>
  <circle fill="hsl(-261.0958292385412,60%,60%)" r="1.5864005379054391" cx="-9.126935939954274" cy="20.04577314401936"/>
  <circle fill="hsl(-1313.9815541983612,60%,60%)" r="1.591644851508443" cx="20.403033730379626" cy="-8.677389451930727"/>
  <circle fill="hsl(-1131.2168363167002,60%,60%)" r="1.5968719422671311" cx="-21.045180998391675" cy="-7.427696554405826"/>
  <circle fill="hsl(119.16528564872253,60%,60%)" r="1.6020819787597222" cx="10.573589543896775" cy="19.81922106235374"/>
  <circle fill="hsl(1287.5692551954926,60%,60%)" r="1.6072751268321592" cx="5.622684613226289" cy="-21.8989107228928"/>
  <circle fill="hsl(1299.7698510932848,60%,60%)" r="1.61245154965971" cx="-19.058023346629273" cy="12.433250850928188"/>
  <circle fill="hsl(144.54990173959982,60%,60%)" r="1.6176114078067905" cx="22.5960482947766" cy="3.7245460532216565"/>
  <circle fill="hsl(-1115.9866989995355,60%,60%)" r="1.622754859285078" cx="-14.239698547107704" cy="-18.121447020466025"/>
  <circle fill="hsl(-1322.9084136669335,60%,60%)" r="1.6278820596099706" cx="-1.747030853260738" cy="23.126792011806707"/>
  <circle fill="hsl(-285.9723720657668,60%,60%)" r="1.632993161855452" cx="17.013071258236955" cy="-15.976337327411962"/>
  <circle fill="hsl(1041.4672112314142,60%,60%)" r="1.6380883167074152" cx="-23.48256239512337" cy="0.29510611595991876"/>
  <circle fill="hsl(1438.9685051424667,60%,60%)" r="1.6431676725154984" cx="17.626800045257497" cy="15.738048620919429"/>
  <circle fill="hsl(541.0706532167069,60%,60%)" r="1.648231375343482" cx="-2.386215036972203" cy="-23.656103139413222"/>
  <circle fill="hsl(-826.7032003534202,60%,60%)" r="1.6532795690182993" cx="-14.303091645183924" cy="19.175096995737814"/>
  <circle fill="hsl(-1406.8280824078427,60%,60%)" r="1.6583123951777" cx="23.641572062145823" cy="-4.5098710673416464"/>
  <circle fill="hsl(-665.9398517686894,60%,60%)" r="1.66332999331662" cx="-20.60576451450485" cy="-12.71644527136369"/>
  <circle fill="hsl(714.7922690955343,60%,60%)" r="1.6683325008322931" cx="6.649003319348196" cy="23.434621079189398"/>
  <circle fill="hsl(1465.9295358346749,60%,60%)" r="1.6733200530681511" cx="10.987845135377025" cy="-21.904011550213347"/>
  <circle fill="hsl(896.8798094557507,60%,60%)" r="1.6782927833565473" cx="-23.03246431928139" cy="8.786031884923666"/>
  <circle fill="hsl(-469.17521591572364,60%,60%)" r="1.6832508230603465" cx="23.05586286839608" cy="9.128461876596635"/>
  <circle fill="hsl(-1376.2908498387346,60%,60%)" r="1.6881943016134133" cx="-10.903011807474117" cy="-22.43393358391883"/>
  <circle fill="hsl(-990.4691618625446,60%,60%)" r="1.6931233465600393" cx="-7.150831740848865" cy="24.048297556468484"/>
  <circle fill="hsl(333.5671673954131,60%,60%)" r="1.6980380835933373" cx="21.63952046154177" cy="-12.981782825159778"/>
  <circle fill="hsl(1378.5052429217471,60%,60%)" r="1.70293863659264" cx="-24.869381523480282" cy="-5.068773883823894"/>
  <circle fill="hsl(1183.6338170563786,60%,60%)" r="1.707825127659933" cx="15.004123642846839" cy="20.65140451452447"/>
  <circle fill="hsl(-71.88321995569704,60%,60%)" r="1.7126976771553504" cx="2.8972949042376417" cy="-25.508392724018808"/>
  <circle fill="hsl(-1233.7292943990467,60%,60%)" r="1.7175564037317668" cx="-19.473467073685946" cy="16.951909432670025"/>
  <circle fill="hsl(-1233.708483558147,60%,60%)" r="1.7224014243685084" cx="25.955937883212616" cy="0.6524812569005829"/>
  <circle fill="hsl(-71.8399208241474,60%,60%)" r="1.7272328544042153" cx="-18.80727121701992" cy="-18.111290296597137"/>
  <circle fill="hsl(1183.6597954567158,60%,60%)" r="1.7320508075688772" cx="1.6486196878356945" cy="26.20405955876573"/>
  <circle fill="hsl(1378.4900161694075,60%,60%)" r="1.7368553960150703" cx="16.572141272236664" cy="-20.552755752690036"/>
  <circle fill="hsl(333.5247348962758,60%,60%)" r="1.7416467303484175" cx="-26.246332445912007" cy="3.988129060543574"/>
  <circle fill="hsl(-990.4997878644601,60%,60%)" r="1.746424919657298" cx="22.171484512081513" cy="14.864941083957843"/>
  <circle fill="hsl(-1376.2815119385064,60%,60%)" r="1.7511900715418263" cx="-6.34747540311175" cy="-26.077947911711973"/>
  <circle fill="hsl(-469.1344993357574,60%,60%)" r="1.7559422921421233" cx="-13.000218874723016" cy="23.647310346303033"/>
  <circle fill="hsl(896.9144700796079,60%,60%)" r="1.760681686165901" cx="25.695785835525925" cy="-8.707541993685957"/>
  <circle fill="hsl(1465.9262736846947,60%,60%)" r="1.7654083569153813" cx="-24.964970416548834" cy="-10.990051091589377"/>
  <circle fill="hsl(714.754083377364,60%,60%)" r="1.7701224063135672" cx="11.048821418280808" cy="25.09847293214604"/>
  <circle fill="hsl(-665.9778532818663,60%,60%)" r="1.7748239349298849" cx="8.847986219386259" cy="-26.1102339941649"/>
  <circle fill="hsl(-1406.8309613000645,60%,60%)" r="1.7795130420052185" cx="-24.28642684214686" cy="13.351576141611432"/>
  <circle fill="hsl(-826.6683097844549,60%,60%)" r="1.7841898254763513" cx="27.070043756179615" cy="6.588955445620044"/>
  <circle fill="hsl(541.1112350186586,60%,60%)" r="1.7888543819998317" cx="-15.596003760219263" cy="-23.261885389724064"/>
  <circle fill="hsl(1438.9774674558428,60%,60%)" r="1.7935068069752806" cx="-4.229169827937634" cy="27.832649242093723"/>
  <circle fill="hsl(1041.4363141466288,60%,60%)" r="1.798147194568157" cx="22.02892053050462" cy="-17.762405562511443"/>
  <circle fill="hsl(-286.0147219114516,60%,60%)" r="1.8027756377319946" cx="-28.387731188663167" cy="-1.7860046618173147"/>
  <circle fill="hsl(-1322.923280020701,60%,60%)" r="1.8073922282301278" cx="19.83135697281133" cy="20.59343663986437"/>
  <circle fill="hsl(-1115.9604138042919,60%,60%)" r="1.8119970566569177" cx="-0.7221281326386395" cy="-28.726515522431903"/>
  <circle fill="hsl(144.5931719965683,60%,60%)" r="1.816590212458495" cx="-18.96315292468308" cy="21.783878421410215"/>
  <circle fill="hsl(1299.7903239372722,60%,60%)" r="1.8211717839530315" cx="28.841875864088905" cy="-3.2759186701370955"/>
  <circle fill="hsl(1287.5481079881522,60%,60%)" r="1.8257418583505538" cx="-23.601605159457417" cy="-17.147569877538032"/>
  <circle fill="hsl(119.12196103495785,60%,60%)" r="1.8303005217723127" cx="5.85530776234977" cy="28.728423484020023"/>
  <circle fill="hsl(-1131.2425058867957,60%,60%)" r="1.834847859269718" cx="15.157919830532082" cy="-25.266954527350133"/>
  <circle fill="hsl(-1313.9659682404229,60%,60%)" r="1.8393839548428526" cx="-28.382583743970127" cy="8.439644438332126"/>
  <circle fill="hsl(-261.05331741041937,60%,60%)" r="1.8439088914585775" cx="26.763289187835138" cy="13.007101805403302"/>
  <circle fill="hsl(1059.4524111855806,60%,60%)" r="1.848422751068236" cx="-11.007851086485607" cy="-27.80265816483"/>
  <circle fill="hsl(1433.4843405005904,60%,60%)" r="1.8529256146249728" cx="-10.709600995822669" cy="28.075074850722242"/>
  <circle fill="hsl(517.1592396590081,60%,60%)" r="1.857417562100671" cx="26.98887137436932" cy="-13.53859489894808"/>
  <circle fill="hsl(-847.0578194751268,60%,60%)" r="1.8618986725025255" cx="-29.188031044739322" cy="-8.281393355833378"/>
  <circle fill="hsl(-1404.9119641431953,60%,60%)" r="1.8663690238892559" cx="16.010464227197247" cy="25.9434023104318"/>
  <circle fill="hsl(-643.5146664135729,60%,60%)" r="1.8708286933869707" cx="5.739835903887821" cy="-30.089273533640434"/>
  <circle fill="hsl(737.1089095446667,60%,60%)" r="1.875277757204694" cx="-24.670399183539775" cy="18.402148397158637"/>
  <circle fill="hsl(1467.6198150673513,60%,60%)" r="1.879716290649558" cx="30.767447027948997" cy="3.1035434836642883"/>
  <circle fill="hsl(876.3896925405704,60%,60%)" r="1.8841443681416772" cx="-20.692619483064558" cy="-23.175977837279586"/>
  <circle fill="hsl(-493.00720998195936,60%,60%)" r="1.888562063228706" cx="-0.39225284978362823" cy="31.212846910288224"/>
  <circle fill="hsl(-1381.5536956184005,60%,60%)" r="1.8929694486000912" cx="21.468203283708647" cy="-22.86131450325701"/>
  <circle fill="hsl(-972.3242232166725,60%,60%)" r="1.8973665961010275" cx="-31.41752877075616" cy="2.3733249327331847"/>
  <circle fill="hsl(358.4375175554801,60%,60%)" r="1.9017535767461216" cx="24.888316477478725" cy="19.55705433368179"/>
  <circle fill="hsl(1387.2353193543397,60%,60%)" r="1.906130460732773" cx="-5.171662672631429" cy="-31.375404638606142"/>
  <circle fill="hsl(1168.1972277501814,60%,60%)" r="1.91049731745428" cx="-17.454371386878577" cy="26.75453277507661"/>
  <circle fill="hsl(-97.29414598204535,60%,60%)" r="1.9148542155126762" cx="31.082324897008725" cy="-7.980584612322783"/>
  <circle fill="hsl(-1245.7518689454107,60%,60%)" r="1.9192012227313042" cx="-28.441869186885047" cy="-15.173787592214039"/>
  <circle fill="hsl(-1221.2892070315431,60%,60%)" r="1.9235384061671346" cx="10.777442059335511" cy="30.53614497805795"/>
  <circle fill="hsl(-46.397018788706816,60%,60%)" r="1.927865832122834" cx="12.730643735396828" cy="-29.933398170228656"/>
  <circle fill="hsl(1198.734236205563,60%,60%)" r="1.9321835661585918" cx="-29.736776054703522" cy="13.539295699006546"/>
  <circle fill="hsl(1369.3366243265166,60%,60%)" r="1.9364916731037085" cx="31.213519747109252" cy="10.141887354588711"/>
  <circle fill="hsl(308.55909670897137,60%,60%)" r="1.9407902170679516" cx="-16.243103123304717" cy="-28.68621907382697"/>
  <circle fill="hsl(-1008.3243797817097,60%,60%)" r="1.9450792614526877" cx="-7.425956727221246" cy="32.26811357930369"/>
  <circle fill="hsl(-1370.5772099792991,60%,60%)" r="1.9493588689617927" cx="27.388581609476937" cy="-18.865910047062883"/>
  <circle fill="hsl(-445.1458124146521,60%,60%)" r="1.9536291016123473" cx="-33.08468080131792" cy="-4.602650508688784"/>
  <circle fill="hsl(917.1324538368449,60%,60%)" r="1.9578900207451218" cx="21.385043632320944" cy="25.850077155925053"/>
  <circle fill="hsl(1463.7852332516686,60%,60%)" r="1.9621416870348585" cx="1.6929839365314128" cy="-33.652474261983436"/>
  <circle fill="hsl(692.2224814542855,60%,60%)" r="1.96638416050035" cx="-24.07900662589958" cy="23.778306303391282"/>
  <circle fill="hsl(-688.184565796725,60%,60%)" r="1.970617500514327" cx="33.96261590781993" cy="-1.2809673598701694"/>
  <circle fill="hsl(-1408.2960353320439,60%,60%)" r="1.9748417658131499" cx="-26.02416841098661" cy="-22.085721968567068"/>
  <circle fill="hsl(-806.0447630250884,60%,60%)" r="1.9790570145063195" cx="4.2962347851791565" cy="34.008200135406746"/>
  <circle fill="hsl(564.8622087891686,60%,60%)" r="1.983263304085802" cx="19.882571973593727" cy="-28.101958093042057"/>
  <circle fill="hsl(1444.0193324861166,60%,60%)" r="1.9874606914351791" cx="-33.78438204522932" cy="7.329134170222146"/>
  <circle fill="hsl(1023.1336029795847,60%,60%)" r="1.9916492328386208" cx="29.992046683340263" cy="17.48383048042716"/>
  <circle fill="hsl(-310.8345810361104,60%,60%)" r="1.9958289839896939" cx="-10.355451760367886" cy="-33.28844964502635"/>
  <circle fill="hsl(-1331.4410230864082,60%,60%)" r="2" cx="-14.905607364681567" cy="31.67602803656792"/>
  <circle fill="hsl(-1100.3448671180208,60%,60%)" r="2.004162335407655" cx="32.51987917569195" cy="-13.350637339863209"/>
  <circle fill="hsl(169.98514682624304,60%,60%)" r="2.008316044185609" cx="-33.13689017013508" cy="-12.165742824799628"/>
  <circle fill="hsl(1311.613462353039,60%,60%)" r="2.0124611797498106" cx="16.29000295337357" cy="31.480372866222307"/>
  <circle fill="hsl(1274.9322710557515,60%,60%)" r="2.016597794967223" cx="9.283685640494433" cy="-34.35917766888885"/>
  <circle fill="hsl(93.66609104912591,60%,60%)" r="2.0207259421636903" cx="-30.173878565174707" cy="19.14892561921714"/>
  <circle fill="hsl(-1146.1343994568442,60%,60%)" r="2.0248456731316584" cx="35.32914335821019" cy="6.280356219166281"/>
  <circle fill="hsl(-1304.6023471238711,60%,60%)" r="2.0289570391377603" cx="-21.903052375625922" cy="-28.606590843186535"/>
  <circle fill="hsl(-236.0430516792739,60%,60%)" r="2.0330600909302543" cx="-3.1779953852108473" cy="36.034887824034136"/>
  <circle fill="hsl(1077.1149985588545,60%,60%)" r="2.0371548787463363" cx="26.78693331346255" cy="-24.52850596113519"/>
  <circle fill="hsl(1427.5603481401997,60%,60%)" r="2.041241452319315" cx="-36.466485444" cy="5.3961540797571005e-12"/>
  <circle fill="hsl(493.0951588212055,60%,60%)" r="2.0453198608856593" cx="27.00208940433543" cy="24.725522073270966"/>
  <circle fill="hsl(-867.1375838452603,60%,60%)" r="2.04939015319192" cx="-3.229253375297404" cy="-36.6160956921635"/>
  <circle fill="hsl(-1402.5461692863369,60%,60%)" r="2.053452377501525" cx="-22.435110328068273" cy="29.301487786747263"/>
  <circle fill="hsl(-620.8784132106962,60%,60%)" r="2.057506581601462" cx="36.47805858937105" cy="-6.484595445808336"/>
  <circle fill="hsl(759.2039542912669,60%,60%)" r="2.0615528128088303" cx="-31.405465445387282" cy="-19.93051441999936"/>
  <circle fill="hsl(1468.8595691141702,60%,60%)" r="2.065591117977289" cx="9.740260344127778" cy="36.048973291948286"/>
  <circle fill="hsl(855.6343317343814,60%,60%)" r="2.0696215435033847" cx="17.228521642043017" cy="-33.2940568996684"/>
  <circle fill="hsl(-516.6753026341966,60%,60%)" r="2.073644135332772" cx="-35.32775894171338" cy="12.970089457846655"/>
  <circle fill="hsl(-1386.3741848832203,60%,60%)" r="2.077658938966323" cx="34.94874981952054" cy="14.347780377692917"/>
  <circle fill="hsl(-953.8651734948251,60%,60%)" r="2.0816659994661326" cx="-16.147741311744618" cy="-34.3156970396123"/>
  <circle fill="hsl(383.2049410779977,60%,60%)" r="2.085665361461421" cx="-11.308673261315628" cy="36.35265839896388"/>
  <circle fill="hsl(1395.5400617117502,60%,60%)" r="2.0896570691543306" cx="33.016454752247206" cy="-19.246905822993508"/>
  <circle fill="hsl(1152.4039471183632,60%,60%)" r="2.0936411663256274" cx="-37.49068556074027" cy="-8.13317420577137"/>
  <circle fill="hsl(-122.66518022464382,60%,60%)" r="2.0976176963403033" cx="22.241521190805496" cy="31.436088714246385"/>
  <circle fill="hsl(-1257.3746449206637,60%,60%)" r="2.101586702153082" cx="4.844690289663124" cy="-38.34967249311913"/>
  <circle fill="hsl(-1208.4777981089803,60%,60%)" r="2.105548226313834" cx="-29.583029048381917" cy="25.105991639487616"/>
  <circle fill="hsl(-20.930175248893505,60%,60%)" r="2.1095023109728985" cx="38.91853410896097" cy="1.467889635561134"/>
  <circle fill="hsl(1213.4424158584893,60%,60%)" r="2.1134489978863145" cx="-27.815404205779306" cy="-27.46804348840153"/>
  <circle fill="hsl(1359.7635075499009,60%,60%)" r="2.117388328420966" cx="1.9714834585609127" cy="39.18837911893296"/>
  <circle fill="hsl(283.5061629185444,60%,60%)" r="2.1213203435596424" cx="25.1041816553312" cy="-30.345742748261568"/>
  <circle fill="hsl(-1025.8235787965532,60%,60%)" r="2.1252450839060106" cx="-39.152613524702744" cy="5.446804750464168"/>
  <circle fill="hsl(-1364.4339913460028,60%,60%)" r="2.1291625896895083" cx="32.67409735867322" cy="22.506699705269476"/>
  <circle fill="hsl(-421.0082230137646,60%,60%)" r="2.1330729007701543" cx="-8.930776152123368" cy="-38.80702646321485"/>
  <circle fill="hsl(937.0724256263444,60%,60%)" r="2.136976056643281" cx="-19.69296573356174" cy="34.77886737269422"/>
  <circle fill="hsl(1461.1948693244055,60%,60%)" r="2.140872096444188" cx="38.14985746868823" cy="-12.395640100055484"/>
  <circle fill="hsl(669.4833504589102,60%,60%)" r="2.1447610589527217" cx="-36.63995621026084" cy="-16.68234648627341"/>
  <circle fill="hsl(-710.1662116899399,60%,60%)" r="2.1486429825977758" cx="15.813400514374397" cy="37.18184436391523"/>
  <circle fill="hsl(-1409.3103722624305,60%,60%)" r="2.1525179054617256" cx="13.496076092314077" cy="-38.238956323876835"/>
  <circle fill="hsl(-785.1592142967036,60%,60%)" r="2.1563858652847827" cx="-35.90625114543057" cy="19.15604858927223"/>
  <circle fill="hsl(588.4455659940904,60%,60%)" r="2.160246899469287" cx="39.55932259619478" cy="10.157107688403604"/>
  <circle fill="hsl(1448.6180683135947,60%,60%)" r="2.164101045083924" cx="-22.395791596860924" cy="-34.328875387199766"/>
  <circle fill="hsl(1004.5196609179922,60%,60%)" r="2.16794833886788" cx="-6.6899489618369286" cy="40.58653260590458"/>
  <circle fill="hsl(-335.54762849793696,60%,60%)" r="2.171788817234923" cx="32.458034853112764" cy="-25.505282840706123"/>
  <circle fill="hsl(-1339.532114082123,60%,60%)" r="2.1756225162774294" cx="-41.30823227266144" cy="-3.1204827819194363"/>
  <circle fill="hsl(-1084.3750899001416,60%,60%)" r="2.179449471770337" cx="28.457850864449632" cy="30.304533178737323"/>
  <circle fill="hsl(195.3332527319991,60%,60%)" r="2.183269719175042" cx="-0.5242257712042756" cy="-41.71436549692728"/>
  <circle fill="hsl(1323.0349652756997,60%,60%)" r="2.187083293643233" cx="-27.881604655582493" cy="31.22772600610163"/>
  <circle fill="hsl(1261.926293881182,60%,60%)" r="2.1908902300206643" cx="41.7972865285342" cy="-4.216134543848693"/>
  <circle fill="hsl(68.19026921148857,60%,60%)" r="2.1946905628508695" cx="-33.790262388831096" cy="-25.204838325963774"/>
  <circle fill="hsl(-1160.6577128477973,60%,60%)" r="2.1984843263788196" cx="7.926440057752698" cy="41.55185392740768"/>
  <circle fill="hsl(-1294.820484714189,60%,60%)" r="2.202271554554524" cx="22.292081770879815" cy="-36.12215345615298"/>
  <circle fill="hsl(-210.9494126570485,60%,60%)" r="2.206052281036573" cx="-40.97550512049732" cy="11.625802211081249"/>
  <circle fill="hsl(1094.4494382018345,60%,60%)" r="2.2098265391956295" cx="38.20163919174583" cy="19.163325146808926"/>
  <circle fill="hsl(1421.1983845380428,60%,60%)" r="2.2135943621178655" cx="-15.284576178506942" cy="-40.06831070928215"/>
  <circle fill="hsl(468.8859519700362,60%,60%)" r="2.217355782608345" cx="-15.840566197622884" cy="40.00870321280523"/>
  <circle fill="hsl(-886.9362008129542,60%,60%)" r="2.2211108331943574" cx="38.83300784116911" cy="-18.873049678435397"/>
  <circle fill="hsl(-1399.7314392364578,60%,60%)" r="2.224859546128699" cx="-41.5252579899487" cy="-12.347657133906923"/>
  <circle fill="hsl(-598.0381859703102,60%,60%)" r="2.228601953392904" cx="22.36168371039571" cy="37.27501212450256"/>
  <circle fill="hsl(781.0704791304535,60%,60%)" r="2.2323380867004294" cx="8.710134432552081" cy="-42.73531652597964"/>
  <circle fill="hsl(1469.6484094576551,60%,60%)" r="2.23606797749979" cx="-35.40240773918729" cy="25.72135481630545"/>
</svg>